STARTFONT 2.1
FONT -FontForge-TenStamps-Medium-R-Normal--15-110-100-100-P-136-ISO10646-1
SIZE 11 100 100
FONTBOUNDINGBOX 13 14 -1 -3
COMMENT "Generated by fontforge, http://fontforge.sourceforge.net"
COMMENT "Geoff"
STARTPROPERTIES 40
FOUNDRY "FontForge"
FAMILY_NAME "TenStamps"
WEIGHT_NAME "Medium"
SLANT "R"
SETWIDTH_NAME "Normal"
ADD_STYLE_NAME ""
PIXEL_SIZE 15
POINT_SIZE 110
RESOLUTION_X 100
RESOLUTION_Y 100
SPACING "P"
AVERAGE_WIDTH 136
CHARSET_REGISTRY "ISO10646"
CHARSET_ENCODING "1"
FONTNAME_REGISTRY ""
CHARSET_COLLECTIONS "ISO10646-1"
FONT_NAME "TenStamps"
FACE_NAME "TenStamps"
COPYRIGHT "Geoff"
FONT_VERSION "001.000"
FONT_ASCENT 11
FONT_DESCENT 4
UNDERLINE_POSITION -2
UNDERLINE_THICKNESS 1
X_HEIGHT 10
CAP_HEIGHT 10
RAW_ASCENT 750
RAW_DESCENT 250
NORM_SPACE 5
RELATIVE_WEIGHT 50
RELATIVE_SETWIDTH 50
SUPERSCRIPT_X 0
SUPERSCRIPT_Y 7
SUPERSCRIPT_SIZE 10
SUBSCRIPT_X 0
SUBSCRIPT_Y 2
SUBSCRIPT_SIZE 10
FIGURE_WIDTH 14
AVG_LOWERCASE_WIDTH 140
AVG_UPPERCASE_WIDTH 140
ENDPROPERTIES
CHARS 127
STARTCHAR space
ENCODING 32
SWIDTH 312 0
DWIDTH 5 0
BBX 1 1 0 0
BITMAP
00
ENDCHAR
STARTCHAR exclam
ENCODING 33
SWIDTH 937 0
DWIDTH 14 0
BBX 13 14 -1 -3
BITMAP
3FE0
7FF0
FFF8
F8F8
F8F8
F8F8
F8F8
F8F8
FFF8
F8F8
F8F8
FFF8
7FF0
3FE0
ENDCHAR
STARTCHAR quotedbl
ENCODING 34
SWIDTH 937 0
DWIDTH 14 0
BBX 13 14 -1 -3
BITMAP
3FE0
7FF0
FFF8
F378
F378
FBF8
FFF8
FFF8
FFF8
FFF8
FFF8
FFF8
7FF0
3FE0
ENDCHAR
STARTCHAR numbersign
ENCODING 35
SWIDTH 937 0
DWIDTH 14 0
BBX 13 14 -1 -3
BITMAP
3FE0
7FF0
FFF8
FFF8
E038
F378
F378
F378
E038
F378
FFF8
FFF8
7FF0
3FE0
ENDCHAR
STARTCHAR dollar
ENCODING 36
SWIDTH 937 0
DWIDTH 14 0
BBX 13 14 -1 -3
BITMAP
3FE0
7FF0
FFF8
FCF8
E4B8
E4F8
F078
FCB8
E4B8
F078
FCF8
FFF8
7FF0
3FE0
ENDCHAR
STARTCHAR percent
ENCODING 37
SWIDTH 937 0
DWIDTH 14 0
BBX 13 14 -1 -3
BITMAP
3FE0
7FF0
FFF8
FF38
F738
FE78
F8F8
F1F8
E3F8
E3B8
E3F8
FFF8
7FF0
3FE0
ENDCHAR
STARTCHAR ampersand
ENCODING 38
SWIDTH 937 0
DWIDTH 14 0
BBX 13 14 -1 -3
BITMAP
3FE0
7FF0
FFF8
F6F8
E6F8
E4F8
F0B8
E678
E778
E678
F0B8
FFF8
7FF0
3FE0
ENDCHAR
STARTCHAR quotesingle
ENCODING 39
SWIDTH 937 0
DWIDTH 14 0
BBX 13 14 -1 -3
BITMAP
3FE0
7FF0
FFF8
FCF8
FCF8
FCF8
FFF8
FFF8
FFF8
FFF8
FFF8
FFF8
7FF0
3FE0
ENDCHAR
STARTCHAR parenleft
ENCODING 40
SWIDTH 937 0
DWIDTH 14 0
BBX 13 14 -1 -3
BITMAP
3FE0
7FF0
FFF8
FCF8
F8F8
F8F8
F8F8
F8F8
F8F8
F8F8
FCF8
FFF8
7FF0
3FE0
ENDCHAR
STARTCHAR parenright
ENCODING 41
SWIDTH 937 0
DWIDTH 14 0
BBX 13 14 -1 -3
BITMAP
3FE0
7FF0
FFF8
FCF8
FCF8
FCF8
FCF8
FCF8
FCF8
FCF8
F8F8
FFF8
7FF0
3FE0
ENDCHAR
STARTCHAR asterisk
ENCODING 42
SWIDTH 937 0
DWIDTH 14 0
BBX 13 14 -1 -3
BITMAP
3FE0
7FF0
FFF8
FFF8
F378
F378
FCF8
F378
F378
FFF8
FFF8
FFF8
7FF0
3FE0
ENDCHAR
STARTCHAR plus
ENCODING 43
SWIDTH 937 0
DWIDTH 14 0
BBX 13 14 -1 -3
BITMAP
3FE0
7FF0
FFF8
FFF8
FCF8
FCF8
F078
FCF8
FCF8
FFF8
FFF8
FFF8
7FF0
3FE0
ENDCHAR
STARTCHAR comma
ENCODING 44
SWIDTH 937 0
DWIDTH 14 0
BBX 13 14 -1 -3
BITMAP
3FE0
7FF0
FFF8
FFF8
FFF8
FFF8
FFF8
FFF8
FFF8
FCF8
FCF8
F9F8
7FF0
3FE0
ENDCHAR
STARTCHAR hyphen
ENCODING 45
SWIDTH 937 0
DWIDTH 14 0
BBX 13 14 -1 -3
BITMAP
3FE0
7FF0
FFF8
FFF8
FFF8
FFF8
F8F8
FFF8
FFF8
FFF8
FFF8
FFF8
7FF0
3FE0
ENDCHAR
STARTCHAR period
ENCODING 46
SWIDTH 937 0
DWIDTH 14 0
BBX 13 14 -1 -3
BITMAP
3FE0
7FF0
FFF8
FFF8
FFF8
FFF8
FFF8
FFF8
FFF8
FCF8
FCF8
FFF8
7FF0
3FE0
ENDCHAR
STARTCHAR slash
ENCODING 47
SWIDTH 937 0
DWIDTH 14 0
BBX 13 14 -1 -3
BITMAP
3FE0
7FF0
FFF8
FFB8
FE38
FC78
F8F8
F0F8
E1F8
E3F8
E7F8
FFF8
7FF0
3FE0
ENDCHAR
STARTCHAR zero
ENCODING 48
SWIDTH 937 0
DWIDTH 14 0
BBX 13 14 -1 -3
BITMAP
3FE0
7FF0
FFF8
FBF8
E338
E338
E338
E338
E338
F378
F8F8
FFF8
7FF0
3FE0
ENDCHAR
STARTCHAR one
ENCODING 49
SWIDTH 937 0
DWIDTH 14 0
BBX 13 14 -1 -3
BITMAP
3FE0
7FF0
FFF8
FEF8
F8F8
FCF8
FCF8
FCF8
FCF8
FCF8
F878
FFF8
7FF0
3FE0
ENDCHAR
STARTCHAR two
ENCODING 50
SWIDTH 937 0
DWIDTH 14 0
BBX 13 14 -1 -3
BITMAP
3FE0
7FF0
FFF8
F378
FF38
FE38
FC78
F8F8
F0F8
E1F8
E038
FFF8
7FF0
3FE0
ENDCHAR
STARTCHAR three
ENCODING 51
SWIDTH 937 0
DWIDTH 14 0
BBX 13 14 -1 -3
BITMAP
3FE0
7FF0
FFF8
F378
FF38
FF38
FC78
FF38
FF38
E338
F078
FFF8
7FF0
3FE0
ENDCHAR
STARTCHAR four
ENCODING 52
SWIDTH 937 0
DWIDTH 14 0
BBX 13 14 -1 -3
BITMAP
3FE0
7FF0
FFF8
E338
E338
E338
E038
FF38
FF38
FF38
FF38
FFF8
7FF0
3FE0
ENDCHAR
STARTCHAR five
ENCODING 53
SWIDTH 937 0
DWIDTH 14 0
BBX 13 14 -1 -3
BITMAP
3FE0
7FF0
FFF8
E3F8
E3F8
E3F8
E078
FF38
FF38
E338
F078
FFF8
7FF0
3FE0
ENDCHAR
STARTCHAR six
ENCODING 54
SWIDTH 937 0
DWIDTH 14 0
BBX 13 14 -1 -3
BITMAP
3FE0
7FF0
FFF8
F3F8
E3F8
E3F8
E078
E338
E338
E338
F078
FFF8
7FF0
3FE0
ENDCHAR
STARTCHAR seven
ENCODING 55
SWIDTH 937 0
DWIDTH 14 0
BBX 13 14 -1 -3
BITMAP
3FE0
7FF0
FFF8
FF38
FF38
FE78
FCF8
F8F8
F8F8
F8F8
F8F8
FFF8
7FF0
3FE0
ENDCHAR
STARTCHAR eight
ENCODING 56
SWIDTH 937 0
DWIDTH 14 0
BBX 13 14 -1 -3
BITMAP
3FE0
7FF0
FFF8
F378
E338
E338
F078
E338
E338
E338
F078
FFF8
7FF0
3FE0
ENDCHAR
STARTCHAR nine
ENCODING 57
SWIDTH 937 0
DWIDTH 14 0
BBX 13 14 -1 -3
BITMAP
3FE0
7FF0
FFF8
F378
E338
E338
F038
FF38
FF38
E338
F078
FFF8
7FF0
3FE0
ENDCHAR
STARTCHAR colon
ENCODING 58
SWIDTH 937 0
DWIDTH 14 0
BBX 13 14 -1 -3
BITMAP
3FE0
7FF0
FFF8
FFF8
FCF8
FCF8
FFF8
FFF8
FCF8
FCF8
FFF8
FFF8
7FF0
3FE0
ENDCHAR
STARTCHAR semicolon
ENCODING 59
SWIDTH 937 0
DWIDTH 14 0
BBX 13 14 -1 -3
BITMAP
3FE0
7FF0
FFF8
FFF8
FCF8
FCF8
FFF8
FFF8
FCF8
FCF8
F9F8
FFF8
7FF0
3FE0
ENDCHAR
STARTCHAR less
ENCODING 60
SWIDTH 937 0
DWIDTH 14 0
BBX 13 14 -1 -3
BITMAP
3FE0
7FF0
FE78
FCF8
F1F8
E3F8
E3F8
F1F8
F8F8
FCF8
FE78
FFF8
7FF0
3FE0
ENDCHAR
STARTCHAR equal
ENCODING 61
SWIDTH 937 0
DWIDTH 14 0
BBX 13 14 -1 -3
BITMAP
3FE0
7FF0
FFF8
FFF8
FFF8
F8F8
FFF8
F8F8
FFF8
FFF8
FFF8
FFF8
7FF0
3FE0
ENDCHAR
STARTCHAR greater
ENCODING 62
SWIDTH 937 0
DWIDTH 14 0
BBX 13 14 -1 -3
BITMAP
3FE0
7FF0
F1F8
FCF8
FE78
FF38
FF38
FE78
FCF8
F8F8
F1F8
FFF8
7FF0
3FE0
ENDCHAR
STARTCHAR question
ENCODING 63
SWIDTH 937 0
DWIDTH 14 0
BBX 13 14 -1 -3
BITMAP
3FE0
7FF0
FFF8
F378
FF38
FF38
FC78
F8F8
FFF8
F8F8
F8F8
FFF8
7FF0
3FE0
ENDCHAR
STARTCHAR at
ENCODING 64
SWIDTH 937 0
DWIDTH 14 0
BBX 13 14 -1 -3
BITMAP
3FE0
7FF0
FFF8
FFF8
ECB8
EBB8
EBB8
EBB8
ECF8
F7F8
F8F8
FFF8
7FF0
3FE0
ENDCHAR
STARTCHAR A
ENCODING 65
SWIDTH 937 0
DWIDTH 14 0
BBX 13 14 -1 -3
BITMAP
3FE0
7FF0
FFF8
F8F8
E338
E338
E338
E038
E338
E338
E338
FFF8
7FF0
3FE0
ENDCHAR
STARTCHAR B
ENCODING 66
SWIDTH 937 0
DWIDTH 14 0
BBX 13 14 -1 -3
BITMAP
3FE0
7FF0
FFF8
E378
E338
E338
E078
E338
E338
E338
E078
FFF8
7FF0
3FE0
ENDCHAR
STARTCHAR C
ENCODING 67
SWIDTH 937 0
DWIDTH 14 0
BBX 13 14 -1 -3
BITMAP
3FE0
7FF0
FFF8
F3F8
E3F8
E3F8
E3F8
E3F8
E3F8
E3B8
F078
FFF8
7FF0
3FE0
ENDCHAR
STARTCHAR D
ENCODING 68
SWIDTH 937 0
DWIDTH 14 0
BBX 13 14 -1 -3
BITMAP
3FE0
7FF0
FFF8
E378
E338
E338
E338
E338
E338
E338
E078
FFF8
7FF0
3FE0
ENDCHAR
STARTCHAR E
ENCODING 69
SWIDTH 937 0
DWIDTH 14 0
BBX 13 14 -1 -3
BITMAP
3FE0
7FF0
FFF8
E3F8
E3F8
E3F8
E078
E3F8
E3F8
E3F8
E038
FFF8
7FF0
3FE0
ENDCHAR
STARTCHAR F
ENCODING 70
SWIDTH 937 0
DWIDTH 14 0
BBX 13 14 -1 -3
BITMAP
3FE0
7FF0
FFF8
E3F8
E3F8
E3F8
E078
E3F8
E3F8
E3F8
E3F8
FFF8
7FF0
3FE0
ENDCHAR
STARTCHAR G
ENCODING 71
SWIDTH 937 0
DWIDTH 14 0
BBX 13 14 -1 -3
BITMAP
3FE0
7FF0
FFF8
F378
E3F8
E3F8
E238
E338
E338
E338
F078
FFF8
7FF0
3FE0
ENDCHAR
STARTCHAR H
ENCODING 72
SWIDTH 937 0
DWIDTH 14 0
BBX 13 14 -1 -3
BITMAP
3FE0
7FF0
FFF8
E338
E338
E338
E038
E338
E338
E338
E338
FFF8
7FF0
3FE0
ENDCHAR
STARTCHAR I
ENCODING 73
SWIDTH 937 0
DWIDTH 14 0
BBX 13 14 -1 -3
BITMAP
3FE0
7FF0
FFF8
F8F8
F8F8
F8F8
F8F8
F8F8
F8F8
F8F8
F078
FFF8
7FF0
3FE0
ENDCHAR
STARTCHAR J
ENCODING 74
SWIDTH 937 0
DWIDTH 14 0
BBX 13 14 -1 -3
BITMAP
3FE0
7FF0
FFF8
FF38
FF38
FF38
FF38
FF38
E338
E338
F078
FFF8
7FF0
3FE0
ENDCHAR
STARTCHAR K
ENCODING 75
SWIDTH 937 0
DWIDTH 14 0
BBX 13 14 -1 -3
BITMAP
3FE0
7FF0
FFF8
E338
E338
E278
E0F8
E278
E338
E338
E338
FFF8
7FF0
3FE0
ENDCHAR
STARTCHAR L
ENCODING 76
SWIDTH 937 0
DWIDTH 14 0
BBX 13 14 -1 -3
BITMAP
3FE0
7FF0
FFF8
E3F8
E3F8
E3F8
E3F8
E3F8
E3F8
E3F8
E038
FFF8
7FF0
3FE0
ENDCHAR
STARTCHAR M
ENCODING 77
SWIDTH 937 0
DWIDTH 14 0
BBX 13 14 -1 -3
BITMAP
3FE0
7FF0
FFF8
CF98
C318
C018
C018
C498
C798
C798
C798
FFF8
7FF0
3FE0
ENDCHAR
STARTCHAR N
ENCODING 78
SWIDTH 937 0
DWIDTH 14 0
BBX 13 14 -1 -3
BITMAP
3FE0
7FF0
FFF8
E338
E038
E038
E038
E238
E338
E338
E338
FFF8
7FF0
3FE0
ENDCHAR
STARTCHAR O
ENCODING 79
SWIDTH 937 0
DWIDTH 14 0
BBX 13 14 -1 -3
BITMAP
3FE0
7FF0
FFF8
F378
E338
E338
E338
E338
E338
E338
F078
FFF8
7FF0
3FE0
ENDCHAR
STARTCHAR P
ENCODING 80
SWIDTH 937 0
DWIDTH 14 0
BBX 13 14 -1 -3
BITMAP
3FE0
7FF0
FFF8
E378
E338
E338
E078
E3F8
E3F8
E3F8
E3F8
FFF8
7FF0
3FE0
ENDCHAR
STARTCHAR Q
ENCODING 81
SWIDTH 937 0
DWIDTH 14 0
BBX 13 14 -1 -3
BITMAP
3FE0
7FF0
FFF8
F378
E338
E338
E338
E338
E378
E238
F0B8
FFF8
7FF0
3FE0
ENDCHAR
STARTCHAR R
ENCODING 82
SWIDTH 937 0
DWIDTH 14 0
BBX 13 14 -1 -3
BITMAP
3FE0
7FF0
FFF8
E378
E338
E378
E0F8
E278
E338
E338
E338
FFF8
7FF0
3FE0
ENDCHAR
STARTCHAR S
ENCODING 83
SWIDTH 937 0
DWIDTH 14 0
BBX 13 14 -1 -3
BITMAP
3FE0
7FF0
FFF8
F378
E3F8
E3F8
F078
FF38
FF38
E338
F078
FFF8
7FF0
3FE0
ENDCHAR
STARTCHAR T
ENCODING 84
SWIDTH 937 0
DWIDTH 14 0
BBX 13 14 -1 -3
BITMAP
3FE0
7FF0
FFF8
F8F8
F8F8
F8F8
F8F8
F8F8
F8F8
F8F8
F8F8
FFF8
7FF0
3FE0
ENDCHAR
STARTCHAR U
ENCODING 85
SWIDTH 937 0
DWIDTH 14 0
BBX 13 14 -1 -3
BITMAP
3FE0
7FF0
FFF8
E338
E338
E338
E338
E338
E338
E338
F078
FFF8
7FF0
3FE0
ENDCHAR
STARTCHAR V
ENCODING 86
SWIDTH 937 0
DWIDTH 14 0
BBX 13 14 -1 -3
BITMAP
3FE0
7FF0
FFF8
E338
E338
E338
E338
E338
F378
F8F8
FCF8
FFF8
7FF0
3FE0
ENDCHAR
STARTCHAR W
ENCODING 87
SWIDTH 937 0
DWIDTH 14 0
BBX 13 14 -1 -3
BITMAP
3FE0
7FF0
FFF8
C798
C798
C498
C498
C498
C018
C318
E7B8
FFF8
7FF0
3FE0
ENDCHAR
STARTCHAR X
ENCODING 88
SWIDTH 937 0
DWIDTH 14 0
BBX 13 14 -1 -3
BITMAP
3FE0
7FF0
FFF8
E338
E338
F378
F8F8
F378
E338
E338
E338
FFF8
7FF0
3FE0
ENDCHAR
STARTCHAR Y
ENCODING 89
SWIDTH 937 0
DWIDTH 14 0
BBX 13 14 -1 -3
BITMAP
3FE0
7FF0
FFF8
E338
E338
E338
F078
F8F8
F8F8
F8F8
F8F8
FFF8
7FF0
3FE0
ENDCHAR
STARTCHAR Z
ENCODING 90
SWIDTH 937 0
DWIDTH 14 0
BBX 13 14 -1 -3
BITMAP
3FE0
7FF0
FFF8
FF38
FE38
FC78
F8F8
F0F8
E1F8
E3F8
E038
FFF8
7FF0
3FE0
ENDCHAR
STARTCHAR bracketleft
ENCODING 91
SWIDTH 937 0
DWIDTH 14 0
BBX 13 14 -1 -3
BITMAP
3FE0
7FF0
FFF8
F9F8
F9F8
F9F8
F9F8
F9F8
F9F8
F9F8
F8F8
FFF8
7FF0
3FE0
ENDCHAR
STARTCHAR backslash
ENCODING 92
SWIDTH 937 0
DWIDTH 14 0
BBX 13 14 -1 -3
BITMAP
3FE0
7FF0
FFF8
E7F8
E1F8
F0F8
F8F8
FC78
FE38
FF38
FFB8
FFF8
7FF0
3FE0
ENDCHAR
STARTCHAR bracketright
ENCODING 93
SWIDTH 937 0
DWIDTH 14 0
BBX 13 14 -1 -3
BITMAP
3FE0
7FF0
FFF8
FEF8
FEF8
FEF8
FEF8
FEF8
FEF8
FEF8
F8F8
FFF8
7FF0
3FE0
ENDCHAR
STARTCHAR asciicircum
ENCODING 94
SWIDTH 937 0
DWIDTH 14 0
BBX 13 14 -1 -3
BITMAP
3FE0
7FF0
FFF8
FCF8
F378
F7F8
FFF8
FFF8
FFF8
FFF8
FFF8
FFF8
7FF0
3FE0
ENDCHAR
STARTCHAR underscore
ENCODING 95
SWIDTH 937 0
DWIDTH 14 0
BBX 13 14 -1 -3
BITMAP
3FE0
7FF0
FFF8
FFF8
FFF8
FFF8
FFF8
FFF8
FFF8
FFF8
FFF8
E038
7FF0
3FE0
ENDCHAR
STARTCHAR grave
ENCODING 96
SWIDTH 937 0
DWIDTH 14 0
BBX 13 14 -1 -3
BITMAP
3FE0
7FF0
FFF8
FCF8
FEF8
FFF8
FFF8
FFF8
FFF8
FFF8
FFF8
FFF8
7FF0
3FE0
ENDCHAR
STARTCHAR a
ENCODING 97
SWIDTH 937 0
DWIDTH 14 0
BBX 13 14 -1 -3
BITMAP
3FE0
7FF0
FFF8
FFF8
F078
FF38
FF38
F038
E338
E338
F0B8
FFF8
7FF0
3FE0
ENDCHAR
STARTCHAR b
ENCODING 98
SWIDTH 937 0
DWIDTH 14 0
BBX 13 14 -1 -3
BITMAP
3FE0
7FF0
FFF8
E3F8
E078
E338
E338
E338
E338
E338
F078
FFF8
7FF0
3FE0
ENDCHAR
STARTCHAR c
ENCODING 99
SWIDTH 937 0
DWIDTH 14 0
BBX 13 14 -1 -3
BITMAP
3FE0
7FF0
FFF8
FFF8
F078
E338
E3F8
E3F8
E3F8
E338
F078
FFF8
7FF0
3FE0
ENDCHAR
STARTCHAR d
ENCODING 100
SWIDTH 937 0
DWIDTH 14 0
BBX 13 14 -1 -3
BITMAP
3FE0
7FF0
FFF8
FF38
F038
E338
E338
E338
E338
E338
F078
FFF8
7FF0
3FE0
ENDCHAR
STARTCHAR e
ENCODING 101
SWIDTH 937 0
DWIDTH 14 0
BBX 13 14 -1 -3
BITMAP
3FE0
7FF0
FFF8
FFF8
F078
E338
E338
E038
E3F8
E338
F078
FFF8
7FF0
3FE0
ENDCHAR
STARTCHAR f
ENCODING 102
SWIDTH 937 0
DWIDTH 14 0
BBX 13 14 -1 -3
BITMAP
3FE0
7FF0
FC78
F8F8
F078
F8F8
F8F8
F8F8
F8F8
F8F8
F8F8
FFF8
7FF0
3FE0
ENDCHAR
STARTCHAR g
ENCODING 103
SWIDTH 937 0
DWIDTH 14 0
BBX 13 14 -1 -3
BITMAP
3FE0
7FF0
FFF8
FFF8
F0B8
E338
E338
E338
E338
E338
F038
FF38
7070
3FE0
ENDCHAR
STARTCHAR h
ENCODING 104
SWIDTH 937 0
DWIDTH 14 0
BBX 13 14 -1 -3
BITMAP
3FE0
7FF0
FFF8
E3F8
E078
E338
E338
E338
E338
E338
E338
FFF8
7FF0
3FE0
ENDCHAR
STARTCHAR i
ENCODING 105
SWIDTH 937 0
DWIDTH 14 0
BBX 13 14 -1 -3
BITMAP
3FE0
7FF0
FCF8
FFF8
F8F8
FCF8
FCF8
FCF8
FCF8
FCF8
F878
FFF8
7FF0
3FE0
ENDCHAR
STARTCHAR j
ENCODING 106
SWIDTH 937 0
DWIDTH 14 0
BBX 13 14 -1 -3
BITMAP
3FE0
7FF0
FCF8
FFF8
F0F8
FCF8
FCF8
FCF8
FCF8
FCF8
FCF8
F0F8
7FF0
3FE0
ENDCHAR
STARTCHAR k
ENCODING 107
SWIDTH 937 0
DWIDTH 14 0
BBX 13 14 -1 -3
BITMAP
3FE0
7FF0
FFF8
E3F8
E338
E338
E278
E0F8
E378
E338
E338
FFF8
7FF0
3FE0
ENDCHAR
STARTCHAR l
ENCODING 108
SWIDTH 937 0
DWIDTH 14 0
BBX 13 14 -1 -3
BITMAP
3FE0
7FF0
FFF8
F8F8
F8F8
F8F8
F8F8
F8F8
F8F8
F8F8
F078
FFF8
7FF0
3FE0
ENDCHAR
STARTCHAR m
ENCODING 109
SWIDTH 937 0
DWIDTH 14 0
BBX 13 14 -1 -3
BITMAP
3FE0
7FF0
FFF8
FFF8
C938
C018
C498
C498
C498
C798
C798
FFF8
7FF0
3FE0
ENDCHAR
STARTCHAR n
ENCODING 110
SWIDTH 937 0
DWIDTH 14 0
BBX 13 14 -1 -3
BITMAP
3FE0
7FF0
FFF8
FFF8
E478
E338
E338
E338
E338
E338
E338
FFF8
7FF0
3FE0
ENDCHAR
STARTCHAR o
ENCODING 111
SWIDTH 937 0
DWIDTH 14 0
BBX 13 14 -1 -3
BITMAP
3FE0
7FF0
FFF8
FFF8
F078
E338
E338
E338
E338
E338
F078
FFF8
7FF0
3FE0
ENDCHAR
STARTCHAR p
ENCODING 112
SWIDTH 937 0
DWIDTH 14 0
BBX 13 14 -1 -3
BITMAP
3FE0
7FF0
FFF8
FFF8
F078
E338
E338
E338
E338
E338
E078
E3F8
63F0
3FE0
ENDCHAR
STARTCHAR q
ENCODING 113
SWIDTH 937 0
DWIDTH 14 0
BBX 13 14 -1 -3
BITMAP
3FE0
7FF0
FFF8
FFF8
F0B8
E338
E338
E338
E338
E338
F038
FF38
7F30
3FE0
ENDCHAR
STARTCHAR r
ENCODING 114
SWIDTH 937 0
DWIDTH 14 0
BBX 13 14 -1 -3
BITMAP
3FE0
7FF0
FFF8
FFF8
E478
E338
E3F8
E3F8
E3F8
E3F8
E3F8
FFF8
7FF0
3FE0
ENDCHAR
STARTCHAR s
ENCODING 115
SWIDTH 937 0
DWIDTH 14 0
BBX 13 14 -1 -3
BITMAP
3FE0
7FF0
FFF8
FFF8
F078
E338
E3F8
E078
FF38
E338
F078
FFF8
7FF0
3FE0
ENDCHAR
STARTCHAR t
ENCODING 116
SWIDTH 937 0
DWIDTH 14 0
BBX 13 14 -1 -3
BITMAP
3FE0
7FF0
FFF8
FCF8
F078
F8F8
F8F8
F8F8
F8F8
F8F8
FC78
FFF8
7FF0
3FE0
ENDCHAR
STARTCHAR u
ENCODING 117
SWIDTH 937 0
DWIDTH 14 0
BBX 13 14 -1 -3
BITMAP
3FE0
7FF0
FFF8
FFF8
E338
E338
E338
E338
E338
E338
F0B8
FFF8
7FF0
3FE0
ENDCHAR
STARTCHAR v
ENCODING 118
SWIDTH 937 0
DWIDTH 14 0
BBX 13 14 -1 -3
BITMAP
3FE0
7FF0
FFF8
FFF8
E338
E338
E338
E338
E338
F378
F8F8
FFF8
7FF0
3FE0
ENDCHAR
STARTCHAR w
ENCODING 119
SWIDTH 937 0
DWIDTH 14 0
BBX 13 14 -1 -3
BITMAP
3FE0
7FF0
FFF8
FFF8
C798
C798
C498
C498
C498
E4B8
F378
FFF8
7FF0
3FE0
ENDCHAR
STARTCHAR x
ENCODING 120
SWIDTH 937 0
DWIDTH 14 0
BBX 13 14 -1 -3
BITMAP
3FE0
7FF0
FFF8
FFF8
E338
E338
F378
F8F8
F378
E338
E338
FFF8
7FF0
3FE0
ENDCHAR
STARTCHAR y
ENCODING 121
SWIDTH 937 0
DWIDTH 14 0
BBX 13 14 -1 -3
BITMAP
3FE0
7FF0
FFF8
FFF8
E338
E338
E338
E338
E338
F338
F838
FF38
7070
3FE0
ENDCHAR
STARTCHAR z
ENCODING 122
SWIDTH 937 0
DWIDTH 14 0
BBX 13 14 -1 -3
BITMAP
3FE0
7FF0
FFF8
FFF8
E038
FE78
FCF8
F8F8
F1F8
E3F8
E038
FFF8
7FF0
3FE0
ENDCHAR
STARTCHAR braceleft
ENCODING 123
SWIDTH 937 0
DWIDTH 14 0
BBX 13 14 -1 -3
BITMAP
3FE0
7FF0
FFF8
FDF8
F9F8
F9F8
F3F8
F9F8
F9F8
F9F8
FCF8
FFF8
7FF0
3FE0
ENDCHAR
STARTCHAR bar
ENCODING 124
SWIDTH 937 0
DWIDTH 14 0
BBX 13 14 -1 -3
BITMAP
3FE0
7FF0
FCF8
FCF8
FCF8
FCF8
FCF8
FCF8
FCF8
FCF8
FCF8
FCF8
7FF0
3FE0
ENDCHAR
STARTCHAR braceright
ENCODING 125
SWIDTH 937 0
DWIDTH 14 0
BBX 13 14 -1 -3
BITMAP
3FE0
7FF0
FFF8
FEF8
FEF8
FEF8
FF78
FEF8
FEF8
FEF8
F8F8
FFF8
7FF0
3FE0
ENDCHAR
STARTCHAR asciitilde
ENCODING 126
SWIDTH 937 0
DWIDTH 14 0
BBX 13 14 -1 -3
BITMAP
3FE0
7FF0
FFF8
FFF8
F1F8
E4B8
FE78
FFF8
FFF8
FFF8
FFF8
FFF8
7FF0
3FE0
ENDCHAR
STARTCHAR uni00A0
ENCODING 160
SWIDTH 312 0
DWIDTH 5 0
BBX 1 1 0 0
BITMAP
00
ENDCHAR
STARTCHAR exclamdown
ENCODING 161
SWIDTH 937 0
DWIDTH 14 0
BBX 13 14 -1 -3
BITMAP
3FE0
7FF0
FFF8
FFF8
FFF8
FFF8
FFF8
FFF8
FFF8
FFF8
FFF8
FFF8
7FF0
3FE0
ENDCHAR
STARTCHAR cent
ENCODING 162
SWIDTH 937 0
DWIDTH 14 0
BBX 13 14 -1 -3
BITMAP
3FE0
7FF0
FFF8
FFF8
FFF8
FFF8
FFF8
FFF8
FFF8
FFF8
FFF8
FFF8
7FF0
3FE0
ENDCHAR
STARTCHAR sterling
ENCODING 163
SWIDTH 937 0
DWIDTH 14 0
BBX 13 14 -1 -3
BITMAP
3FE0
7FF0
FFF8
FFF8
FFF8
FFF8
FFF8
FFF8
FFF8
FFF8
FFF8
FFF8
7FF0
3FE0
ENDCHAR
STARTCHAR currency
ENCODING 164
SWIDTH 937 0
DWIDTH 14 0
BBX 13 14 -1 -3
BITMAP
3FE0
7FF0
FFF8
FFF8
FFF8
FFF8
FFF8
FFF8
FFF8
FFF8
FFF8
FFF8
7FF0
3FE0
ENDCHAR
STARTCHAR yen
ENCODING 165
SWIDTH 937 0
DWIDTH 14 0
BBX 13 14 -1 -3
BITMAP
3FE0
7FF0
FFF8
FFF8
FFF8
FFF8
FFF8
FFF8
FFF8
FFF8
FFF8
FFF8
7FF0
3FE0
ENDCHAR
STARTCHAR brokenbar
ENCODING 166
SWIDTH 937 0
DWIDTH 14 0
BBX 13 14 -1 -3
BITMAP
3FE0
7FF0
FFF8
FFF8
FFF8
FFF8
FFF8
FFF8
FFF8
FFF8
FFF8
FFF8
7FF0
3FE0
ENDCHAR
STARTCHAR section
ENCODING 167
SWIDTH 937 0
DWIDTH 14 0
BBX 13 14 -1 -3
BITMAP
3FE0
7FF0
FFF8
FFF8
FFF8
FFF8
FFF8
FFF8
FFF8
FFF8
FFF8
FFF8
7FF0
3FE0
ENDCHAR
STARTCHAR dieresis
ENCODING 168
SWIDTH 937 0
DWIDTH 14 0
BBX 13 14 -1 -3
BITMAP
3FE0
7FF0
FFF8
FFF8
FFF8
FFF8
FFF8
FFF8
FFF8
FFF8
FFF8
FFF8
7FF0
3FE0
ENDCHAR
STARTCHAR copyright
ENCODING 169
SWIDTH 937 0
DWIDTH 14 0
BBX 13 14 -1 -3
BITMAP
3FE0
7FF0
FFF8
FFF8
FFF8
FFF8
FFF8
FFF8
FFF8
FFF8
FFF8
FFF8
7FF0
3FE0
ENDCHAR
STARTCHAR ordfeminine
ENCODING 170
SWIDTH 937 0
DWIDTH 14 0
BBX 13 14 -1 -3
BITMAP
3FE0
7FF0
FFF8
FFF8
FFF8
FFF8
FFF8
FFF8
FFF8
FFF8
FFF8
FFF8
7FF0
3FE0
ENDCHAR
STARTCHAR guillemotleft
ENCODING 171
SWIDTH 937 0
DWIDTH 14 0
BBX 13 14 -1 -3
BITMAP
3FE0
7FF0
FFF8
FFF8
FEF8
FCF8
F8F8
FCF8
FEF8
FFF8
FFF8
FFF8
7FF0
3FE0
ENDCHAR
STARTCHAR logicalnot
ENCODING 172
SWIDTH 937 0
DWIDTH 14 0
BBX 13 14 -1 -3
BITMAP
3FE0
7FF0
FFF8
FFF8
FFF8
FFF8
FFF8
FFF8
FFF8
FFF8
FFF8
FFF8
7FF0
3FE0
ENDCHAR
STARTCHAR registered
ENCODING 174
SWIDTH 937 0
DWIDTH 14 0
BBX 13 14 -1 -3
BITMAP
3FE0
7FF0
FFF8
FFF8
FFF8
FFF8
FFF8
FFF8
FFF8
FFF8
FFF8
FFF8
7FF0
3FE0
ENDCHAR
STARTCHAR macron
ENCODING 175
SWIDTH 937 0
DWIDTH 14 0
BBX 13 14 -1 -3
BITMAP
3FE0
7FF0
FFF8
FFF8
FFF8
FFF8
FFF8
FFF8
FFF8
FFF8
FFF8
FFF8
7FF0
3FE0
ENDCHAR
STARTCHAR degree
ENCODING 176
SWIDTH 937 0
DWIDTH 14 0
BBX 13 14 -1 -3
BITMAP
3FE0
7FF0
FFF8
FFF8
FFF8
FFF8
FFF8
FFF8
FFF8
FFF8
FFF8
FFF8
7FF0
3FE0
ENDCHAR
STARTCHAR plusminus
ENCODING 177
SWIDTH 937 0
DWIDTH 14 0
BBX 13 14 -1 -3
BITMAP
3FE0
7FF0
FFF8
FFF8
FFF8
FFF8
FFF8
FFF8
FFF8
FFF8
FFF8
FFF8
7FF0
3FE0
ENDCHAR
STARTCHAR uni00B2
ENCODING 178
SWIDTH 937 0
DWIDTH 14 0
BBX 13 14 -1 -3
BITMAP
3FE0
7FF0
FFF8
FFF8
FFF8
FFF8
FFF8
FFF8
FFF8
FFF8
FFF8
FFF8
7FF0
3FE0
ENDCHAR
STARTCHAR uni00B3
ENCODING 179
SWIDTH 937 0
DWIDTH 14 0
BBX 13 14 -1 -3
BITMAP
3FE0
7FF0
FFF8
FFF8
FFF8
FFF8
FFF8
FFF8
FFF8
FFF8
FFF8
FFF8
7FF0
3FE0
ENDCHAR
STARTCHAR acute
ENCODING 180
SWIDTH 937 0
DWIDTH 14 0
BBX 13 14 -1 -3
BITMAP
3FE0
7FF0
FFF8
FFF8
FFF8
FFF8
FFF8
FFF8
FFF8
FFF8
FFF8
FFF8
7FF0
3FE0
ENDCHAR
STARTCHAR uni00B5
ENCODING 181
SWIDTH 937 0
DWIDTH 14 0
BBX 13 14 -1 -3
BITMAP
3FE0
7FF0
FFF8
FFF8
FFF8
FFF8
FFF8
FFF8
FFF8
FFF8
FFF8
FFF8
7FF0
3FE0
ENDCHAR
STARTCHAR paragraph
ENCODING 182
SWIDTH 937 0
DWIDTH 14 0
BBX 13 14 -1 -3
BITMAP
3FE0
7FF0
FFF8
FFF8
FFF8
FFF8
FFF8
FFF8
FFF8
FFF8
FFF8
FFF8
7FF0
3FE0
ENDCHAR
STARTCHAR periodcentered
ENCODING 183
SWIDTH 937 0
DWIDTH 14 0
BBX 13 14 -1 -3
BITMAP
3FE0
7FF0
FFF8
FFF8
FFF8
FCF8
FCF8
FFF8
FFF8
FFF8
FFF8
FFF8
7FF0
3FE0
ENDCHAR
STARTCHAR cedilla
ENCODING 184
SWIDTH 937 0
DWIDTH 14 0
BBX 13 14 -1 -3
BITMAP
3FE0
7FF0
FFF8
FFF8
FFF8
FFF8
FFF8
FFF8
FFF8
FFF8
FFF8
FFF8
7FF0
3FE0
ENDCHAR
STARTCHAR uni00B9
ENCODING 185
SWIDTH 937 0
DWIDTH 14 0
BBX 13 14 -1 -3
BITMAP
3FE0
7FF0
FFF8
FFF8
FFF8
FFF8
FFF8
FFF8
FFF8
FFF8
FFF8
FFF8
7FF0
3FE0
ENDCHAR
STARTCHAR ordmasculine
ENCODING 186
SWIDTH 937 0
DWIDTH 14 0
BBX 13 14 -1 -3
BITMAP
3FE0
7FF0
FFF8
FFF8
FFF8
FFF8
FFF8
FFF8
FFF8
FFF8
FFF8
FFF8
7FF0
3FE0
ENDCHAR
STARTCHAR guillemotright
ENCODING 187
SWIDTH 937 0
DWIDTH 14 0
BBX 13 14 -1 -3
BITMAP
3FE0
7FF0
FFF8
FFF8
F9F8
F8F8
F8F8
F8F8
F9F8
FBF8
FFF8
FFF8
7FF0
3FE0
ENDCHAR
STARTCHAR Euro
ENCODING 8364
SWIDTH 937 0
DWIDTH 14 0
BBX 13 14 -1 -3
BITMAP
3FE0
7FF0
FFF8
FFF8
FFF8
FFF8
FFF8
FFF8
FFF8
FFF8
FFF8
FFF8
7FF0
3FE0
ENDCHAR
STARTCHAR uni3000
ENCODING 12288
SWIDTH 1000 0
DWIDTH 15 0
BBX 1 1 0 0
BITMAP
00
ENDCHAR
STARTCHAR .notdef
ENCODING -1
SWIDTH 365 0
DWIDTH 5 0
BBX 4 11 1 0
BITMAP
F0
90
90
90
90
90
90
90
90
90
F0
ENDCHAR
STARTCHAR .null
ENCODING -1
SWIDTH 0 0
DWIDTH 0 0
BBX 1 1 0 0
BITMAP
00
ENDCHAR
STARTCHAR nonmarkingreturn
ENCODING -1
SWIDTH 333 0
DWIDTH 5 0
BBX 1 1 0 0
BITMAP
00
ENDCHAR
ENDFONT
